#tb 0: 1/25
#media_type 0: video
#codec_id 0: rawvideo
#dimensions 0: 1920x1080
#sar 0: 0/1
0,          0,          0,        1,  3110400, 0x62a2ceab
0,          1,          1,        1,  3110400, 0x5e4d6adc
0,          2,          2,        1,  3110400, 0x4ad0955d
0,          3,          3,        1,  3110400, 0x17fd7b7c
0,          4,          4,        1,  3110400, 0xe8270ac1
0,          5,          5,        1,  3110400, 0xbc32bf86
0,          6,          6,        1,  3110400, 0x13cc365c
0,          7,          7,        1,  3110400, 0xef503eb5
0,          8,          8,        1,  3110400, 0xcc9506f4
0,          9,          9,        1,  3110400, 0xdc213a9e
0,         10,         10,        1,  3110400, 0xe567c736
0,         11,         11,        1,  3110400, 0x0a79aad4
0,         12,         12,        1,  3110400, 0x61773cff
0,         13,         13,        1,  3110400, 0x2e93a037
0,         14,         14,        1,  3110400, 0xf419a7bf
0,         15,         15,        1,  3110400, 0xa57b06bf
0,         16,         16,        1,  3110400, 0x6e94960a
0,         17,         17,        1,  3110400, 0x11f22564
0,         18,         18,        1,  3110400, 0x850e5f7c
0,         19,         19,        1,  3110400, 0xdfad06af
0,         20,         20,        1,  3110400, 0xf2912aee
0,         21,         21,        1,  3110400, 0x57e1c391
0,         22,         22,        1,  3110400, 0xc8976a8f
0,         23,         23,        1,  3110400, 0x88fb8b68
0,         24,         24,        1,  3110400, 0xbe0e314b
0,         25,         25,        1,  3110400, 0x33ae23f8
0,         26,         26,        1,  3110400, 0x4db83c5c
0,         27,         27,        1,  3110400, 0xa5f71a9d
0,         28,         28,        1,  3110400, 0x34bb4f19
0,         29,         29,        1,  3110400, 0xb1fee8d9
0,         30,         30,        1,  3110400, 0x369990b7
0,         31,         31,        1,  3110400, 0x6bfdbd4a
0,         32,         32,        1,  3110400, 0x709dd60d
0,         33,         33,        1,  3110400, 0x4213781c
0,         34,         34,        1,  3110400, 0x7810dadd
0,         35,         35,        1,  3110400, 0x1bc02bc6
0,         36,         36,        1,  3110400, 0x760ed4aa
0,         37,         37,        1,  3110400, 0xe2b45e4d
0,         38,         38,        1,  3110400, 0x517b8d0a
0,         39,         39,        1,  3110400, 0xf145ed7e
0,         40,         40,        1,  3110400, 0xd8cbc454
0,         41,         41,        1,  3110400, 0xa80f26f7
0,         42,         42,        1,  3110400, 0x340a418d
0,         43,         43,        1,  3110400, 0x5a0f7264
0,         44,         44,        1,  3110400, 0xf2936a6d
0,         45,         45,        1,  3110400, 0x841e715b
0,         46,         46,        1,  3110400, 0xb17e4131
0,         47,         47,        1,  3110400, 0x40e3ba7b
0,         48,         48,        1,  3110400, 0x610254f7
0,         49,         49,        1,  3110400, 0x76aa8b44
